<?xml version="1.0" encoding="UTF-8"?>
<svg id="Layer_1" data-name="Layer 1" xmlns="http://www.w3.org/2000/svg" viewBox="4.39 0 758.4 976.9">
  <defs>
    <style>
      .cls-1 {
        fill: #f2707a;
      }

      .cls-2 {
        fill: #eaded0;
      }

      .cls-3 {
        fill: #86d5f2;
      }

      .cls-4 {
        fill: #fdbc5b;
      }

      .cls-5 {
        fill: #81c997;
      }

      .cls-6 {
        opacity: .6;
      }
    </style>
  </defs>
  <polygon class="cls-1" points="4.39 112.18 4.39 357.66 142.79 366.07 142.79 123.38 73.59 0 4.39 112.18"/>
  <polygon class="cls-5" points="159.4 125.36 159.63 125.45 159.4 370.08 297.79 425.15 297.79 181.7 228.6 36.64 159.4 125.36"/>
  <polygon class="cls-4" points="314.4 188.56 314.4 434.4 452.81 514.36 452.81 269.48 380.83 117.35 314.4 188.56"/>
  <polygon class="cls-3" points="469.44 277.7 469.42 277.7 469.42 522.08 607.82 555.79 607.82 311.31 538.62 187.89 469.44 277.7"/>
  <polygon class="cls-2" points="693.59 198.16 624.39 311.81 624.39 555.73 762.79 555.73 762.79 312.19 693.59 198.16"/>
  <g class="cls-6">
    <polygon class="cls-2" points="624.39 853.52 693.59 976.9 762.79 864.71 762.79 575.38 624.39 575.38 624.39 853.52"/>
  </g>
  <g class="cls-6">
    <polygon class="cls-3" points="469.39 541.66 469.39 795.2 538.58 940.25 607.78 851.54 607.55 851.44 607.78 575.38 469.39 541.66"/>
  </g>
  <g class="cls-6">
    <polygon class="cls-4" points="314.37 707.43 386.35 859.55 452.79 788.34 452.79 533.92 314.37 453.98 314.37 707.43"/>
  </g>
  <g class="cls-6">
    <polygon class="cls-5" points="159.36 665.58 228.56 789.01 297.74 699.2 297.76 699.2 297.76 444.7 159.37 389.62 159.36 665.58"/>
  </g>
  <g class="cls-6">
    <polygon class="cls-1" points="4.39 665.19 73.59 779.24 142.79 665.58 142.79 385.57 4.39 377.23 4.39 665.19"/>
  </g>
</svg>
