<?xml version="1.0" encoding="UTF-8"?>
<svg id="Layer_1" data-name="Layer 1" xmlns="http://www.w3.org/2000/svg" viewBox="0 0 758.4 1155.34">
  <defs>
    <style>
      .cls-1 {
        fill: #f2707a;
      }

      .cls-2 {
        fill: #eaded0;
      }

      .cls-3 {
        fill: #86d5f2;
      }

      .cls-4 {
        fill: #fdbc5b;
      }

      .cls-5 {
        fill: #fff;
      }

      .cls-6 {
        fill: #81c997;
      }

      .cls-7 {
        opacity: .6;
      }
    </style>
  </defs>
  <g>
    <path class="cls-5" d="M79.81,1061.56c-8.17,7.09-19.44,10.64-33.83,10.64s-25.9-3.53-33.9-10.56c-7.99-7.05-12-17.91-12-32.62v-67.03h23.7v67.03c0,2.92.26,5.79.76,8.61.5,2.82,1.56,5.31,3.17,7.47,1.61,2.17,3.85,3.93,6.72,5.28,2.87,1.36,6.73,2.04,11.55,2.04,8.46,0,14.29-1.88,17.51-5.66,3.22-3.78,4.82-9.68,4.82-17.74v-67.03h23.7v67.03c0,14.6-4.07,25.44-12.21,32.54"/>
    <rect class="cls-5" x="126.13" y="1046.53" width="23.71" height="23.25"/>
    <rect class="cls-5" x="188.25" y="1019.36" width="45.43" height="18.42"/>
    <polygon class="cls-5" points="297.02 961.99 297.02 1006.67 339.13 961.99 368.72 961.99 326.61 1004.56 372.8 1069.78 343.07 1069.78 310.61 1021.32 297.02 1035.06 297.02 1069.78 273.31 1069.78 273.31 961.99 297.02 961.99"/>
    <path class="cls-5" d="M451.16,961.99l40.31,107.79h-24.61l-8.16-24h-40.31l-8.44,24h-23.86l40.76-107.79h24.31ZM452.52,1028.13l-13.58-39.57h-.3l-14.04,39.57h27.92Z"/>
    <rect class="cls-5" x="514.57" y="1046.53" width="23.7" height="23.25"/>
    <polygon class="cls-5" points="285.45 1125.75 287.48 1125.75 275.35 1155.34 273.23 1155.34 285.45 1125.75"/>
    <path class="cls-5" d="M328.17,1126.36l11.15,28.42h-2.91l-3.45-8.82h-12.94l-3.43,8.82h-2.86l11.43-28.42h3.03ZM332.03,1143.64l-5.5-14.58-5.69,14.58h11.18ZM322.61,1118.89c.22-.51.53-.96.93-1.34.38-.38.83-.69,1.35-.92.51-.22,1.07-.34,1.65-.34s1.14.12,1.66.34c.52.23.97.54,1.35.92.38.38.69.84.92,1.34.22.53.34,1.07.34,1.65s-.12,1.14-.34,1.65c-.22.53-.53.98-.92,1.36-.38.38-.83.7-1.35.91-.52.23-1.07.35-1.66.35s-1.13-.12-1.65-.35c-.52-.22-.97-.53-1.35-.91-.4-.38-.7-.83-.93-1.36-.22-.51-.33-1.06-.33-1.65s.11-1.12.33-1.65M324.61,1122.48c.51.52,1.16.78,1.92.78s1.42-.25,1.93-.78c.52-.52.79-1.15.79-1.94s-.27-1.4-.79-1.92c-.52-.53-1.15-.78-1.93-.78s-1.41.25-1.92.78c-.52.52-.78,1.15-.78,1.92s.26,1.42.78,1.94"/>
    <polygon class="cls-5" points="352.57 1126.36 352.57 1152.48 368.49 1152.48 368.49 1154.78 349.86 1154.78 349.86 1126.36 352.57 1126.36"/>
    <polygon class="cls-5" points="398.82 1126.36 398.82 1128.66 381.91 1128.66 381.91 1138.94 397.75 1138.94 397.75 1141.26 381.91 1141.26 381.91 1152.48 399.03 1152.48 399.03 1154.78 379.2 1154.78 379.2 1126.36 398.82 1126.36"/>
    <path class="cls-5" d="M412.72,1149.1c.47.97,1.13,1.76,1.97,2.34.83.59,1.83,1.02,2.97,1.26,1.14.25,2.36.38,3.66.38.75,0,1.55-.12,2.43-.32.88-.22,1.7-.55,2.45-1.02.76-.47,1.38-1.06,1.89-1.8.51-.72.75-1.61.75-2.65,0-.8-.17-1.49-.52-2.07-.36-.58-.83-1.08-1.4-1.46-.58-.41-1.21-.73-1.9-.99-.68-.24-1.37-.46-2.03-.61l-6.33-1.55c-.82-.22-1.63-.47-2.4-.81-.8-.3-1.48-.74-2.05-1.27-.59-.52-1.06-1.18-1.42-1.95-.36-.77-.53-1.72-.53-2.84,0-.67.13-1.5.39-2.41.27-.93.77-1.81,1.5-2.63.73-.82,1.73-1.53,3.01-2.1,1.26-.57,2.89-.87,4.89-.87,1.41,0,2.74.19,4.02.57,1.26.36,2.38.93,3.34,1.67.96.75,1.73,1.66,2.3,2.77.57,1.09.85,2.37.85,3.83h-2.71c-.05-1.1-.3-2.05-.74-2.85-.43-.82-1.01-1.49-1.71-2.03-.7-.55-1.52-.96-2.43-1.24-.91-.27-1.88-.41-2.88-.41-.94,0-1.83.11-2.69.29-.85.21-1.62.53-2.26.96-.66.44-1.18,1.01-1.57,1.74-.41.71-.61,1.6-.61,2.66,0,.66.11,1.24.34,1.73.23.5.54.93.93,1.26.4.35.86.63,1.37.83.53.22,1.07.39,1.65.53l6.93,1.72c1.01.25,1.95.59,2.85.97.89.38,1.67.86,2.35,1.42.66.58,1.2,1.28,1.59,2.1.38.82.58,1.82.58,2.99,0,.32-.03.74-.11,1.26-.07.54-.22,1.1-.48,1.7-.25.6-.61,1.2-1.07,1.81-.46.61-1.11,1.17-1.91,1.65-.81.49-1.82.88-3.01,1.19-1.19.29-2.63.46-4.31.46s-3.21-.19-4.65-.57c-1.44-.38-2.65-.98-3.66-1.78-1.02-.79-1.79-1.82-2.33-3.06-.55-1.24-.77-2.74-.7-4.49h2.71c-.03,1.46.19,2.67.68,3.66"/>
    <path class="cls-5" d="M446.24,1126.36v17.6c0,1.64.18,3.05.55,4.2.38,1.16.92,2.1,1.64,2.82.71.74,1.59,1.26,2.62,1.6,1.04.33,2.2.5,3.51.5s2.5-.17,3.54-.5c1.04-.33,1.91-.86,2.63-1.6.71-.72,1.25-1.66,1.64-2.82.36-1.15.55-2.56.55-4.2v-17.6h2.7v18.18c0,1.48-.21,2.84-.62,4.16-.41,1.32-1.05,2.46-1.94,3.45-.89.99-2.03,1.76-3.42,2.34-1.39.56-3.08.85-5.07.85s-3.65-.29-5.04-.85c-1.4-.58-2.53-1.35-3.42-2.34-.89-.98-1.54-2.12-1.95-3.45-.41-1.32-.61-2.69-.61-4.16v-18.18h2.71Z"/>
    <polygon class="cls-5" points="482.03 1126.36 498.59 1150.4 498.66 1150.4 498.66 1126.36 501.37 1126.36 501.37 1154.78 498.35 1154.78 481.79 1130.74 481.71 1130.74 481.71 1154.78 479 1154.78 479 1126.36 482.03 1126.36"/>
    <path class="cls-5" d="M524.86,1126.36c4.33.11,7.58,1.32,9.78,3.66,2.19,2.31,3.28,5.83,3.28,10.56s-1.1,8.25-3.28,10.56c-2.2,2.32-5.45,3.53-9.78,3.64h-9.83v-28.42h9.83ZM523.5,1152.48c2.05,0,3.81-.22,5.28-.65,1.47-.44,2.69-1.14,3.64-2.08.95-.96,1.66-2.2,2.12-3.72.45-1.51.67-3.33.67-5.44s-.22-3.95-.67-5.46c-.46-1.52-1.16-2.75-2.12-3.7-.96-.96-2.17-1.65-3.64-2.09-1.47-.44-3.23-.66-5.28-.66h-5.77v23.81h5.77Z"/>
  </g>
  <polygon class="cls-1" points="0 112.18 0 357.66 138.4 366.07 138.4 123.38 69.2 0 0 112.18"/>
  <polygon class="cls-6" points="155.01 125.36 155.24 125.45 155.01 370.08 293.4 425.15 293.4 181.7 224.21 36.64 155.01 125.36"/>
  <polygon class="cls-4" points="310.01 188.56 310.01 434.4 448.42 514.36 448.42 269.48 376.44 117.35 310.01 188.56"/>
  <polygon class="cls-3" points="465.05 277.7 465.03 277.7 465.03 522.08 603.43 555.79 603.43 311.31 534.23 187.89 465.05 277.7"/>
  <polygon class="cls-2" points="689.2 198.16 620 311.81 620 555.73 758.4 555.73 758.4 312.19 689.2 198.16"/>
  <g class="cls-7">
    <polygon class="cls-2" points="620 853.52 689.2 976.9 758.4 864.71 758.4 575.38 620 575.38 620 853.52"/>
  </g>
  <g class="cls-7">
    <polygon class="cls-3" points="465 541.66 465 795.2 534.19 940.25 603.39 851.54 603.16 851.44 603.39 575.38 465 541.66"/>
  </g>
  <g class="cls-7">
    <polygon class="cls-4" points="309.98 707.43 381.96 859.55 448.39 788.34 448.39 533.92 309.98 453.98 309.98 707.43"/>
  </g>
  <g class="cls-7">
    <polygon class="cls-6" points="154.97 665.58 224.17 789.01 293.35 699.2 293.37 699.2 293.37 444.7 154.97 389.62 154.97 665.58"/>
  </g>
  <g class="cls-7">
    <polygon class="cls-1" points="0 665.19 69.2 779.24 138.4 665.58 138.4 385.57 0 377.23 0 665.19"/>
  </g>
</svg>