<?xml version="1.0" encoding="UTF-8" standalone="no"?>
<!DOCTYPE svg PUBLIC "-//W3C//DTD SVG 1.1//EN" "http://www.w3.org/Graphics/SVG/1.1/DTD/svg11.dtd">
<svg width="100%" height="100%" viewBox="0 0 512 512" version="1.1" xmlns="http://www.w3.org/2000/svg" xmlns:xlink="http://www.w3.org/1999/xlink" xml:space="preserve" xmlns:serif="http://www.serif.com/" style="fill-rule:evenodd;clip-rule:evenodd;stroke-linejoin:round;stroke-miterlimit:2;">
    <g transform="matrix(13.558671,0,0,13.558671,33.862199,42.60672)">
        <g transform="matrix(0.031626,0,0,0.031626,4.252131,0.281812)">
            <path d="M4.391,112.468L4.391,357.951L142.795,366.359L142.795,123.671L73.592,0.291L4.391,112.468Z" style="fill:rgb(242,112,122);fill-rule:nonzero;"/>
        </g>
        <g transform="matrix(0.031626,0,0,0.031626,4.252131,0.281812)">
            <path d="M159.403,125.65L159.634,125.741L159.403,370.37L297.79,425.44L297.79,181.993L228.602,36.931L159.403,125.65Z" style="fill:rgb(129,201,151);fill-rule:nonzero;"/>
        </g>
        <g transform="matrix(0.031626,0,0,0.031626,4.252131,0.281812)">
            <path d="M314.401,188.85L314.401,434.688L452.813,514.649L452.813,269.766L380.831,117.641L314.401,188.85Z" style="fill:rgb(253,188,91);fill-rule:nonzero;"/>
        </g>
        <g transform="matrix(0.031626,0,0,0.031626,4.252131,0.281812)">
            <path d="M469.444,277.99L469.422,277.988L469.422,522.374L607.82,556.08L607.822,311.603L538.621,188.183L469.444,277.99Z" style="fill:rgb(133,213,243);fill-rule:nonzero;"/>
        </g>
        <g transform="matrix(0.031626,0,0,0.031626,4.252131,0.281812)">
            <path d="M693.589,198.45L624.386,312.095L624.386,556.016L762.79,556.016L762.79,312.484L693.589,198.45Z" style="fill:rgb(233,222,208);fill-rule:nonzero;"/>
        </g>
        <g transform="matrix(0.031626,0,0,0.031626,4.252131,0.281812)">
            <path d="M693.59,977.186L624.386,853.81L624.386,575.675L762.79,575.675L762.79,865.002L693.59,977.186Z" style="fill:rgb(242,234,224);fill-rule:nonzero;"/>
        </g>
        <g transform="matrix(0.031626,0,0,0.031626,4.252131,0.281812)">
            <path d="M538.579,940.539L469.393,795.488L469.393,541.946L607.781,575.675L607.551,851.733L607.781,851.829L538.579,940.539Z" style="fill:rgb(183,228,248);fill-rule:nonzero;"/>
        </g>
        <g transform="matrix(0.031626,0,0,0.031626,4.252131,0.281812)">
            <path d="M386.348,859.836L314.368,707.719L314.368,454.271L452.786,534.21L452.786,788.631L386.348,859.836Z" style="fill:rgb(255,213,153);fill-rule:nonzero;"/>
        </g>
        <g transform="matrix(0.031626,0,0,0.031626,4.252131,0.281812)">
            <path d="M228.561,789.297L159.357,665.872L159.366,389.915L297.758,444.989L297.758,699.493L297.738,699.489L228.561,789.297Z" style="fill:rgb(180,220,189);fill-rule:nonzero;"/>
        </g>
        <g transform="matrix(0.031626,0,0,0.031626,4.252131,0.281812)">
            <path d="M73.592,779.526L4.391,665.482L4.391,377.524L142.795,385.864L142.795,665.872L73.592,779.526Z" style="fill:rgb(247,166,166);fill-rule:nonzero;"/>
        </g>
    </g>
</svg>
