<?xml version="1.0" encoding="UTF-8"?>
<svg id="Layer_1" xmlns="http://www.w3.org/2000/svg" viewBox="0 0 152.6 145.13">
  <defs>
    <style>
      .cls-1 {
        fill: #fff;
      }

      .cls-2 {
        fill: #1ba6df;
      }
    </style>
  </defs>
  <path class="cls-2" d="M33.88,6.52h84.84s26.22,80.69,26.22,80.69l-68.64,49.87L7.66,87.21,33.88,6.52M29.14,0l-1.46,4.5L1.46,85.2l-1.46,4.5,3.83,2.78,68.64,49.87,3.83,2.78,3.83-2.78,68.64-49.87,3.83-2.78-1.46-4.5L124.92,4.51,123.46,0H33.88s-4.73,0-4.73,0h0Z"/>
  <path class="cls-1" d="M118.37,76.01l-9.18-2.96,1.62-.82,4.6-2.36-.72-1.39-1.46-2.84-2.34,1.2-5.89,3.02-2.22,1.14-6.86-2.21,15.8-15.4-21.8-3.16,1.81-2.52,2.39-3.33,11.58-1.9-.77-4.69-6.89,1.13,5.62-7.83-3.87-2.77-5.62,7.83-.29-1.79-.84-5.1-1.54.26-3.15.52.43,2.59,1.07,6.53.4,2.45-4.21,5.87-3.28-6.64-6.36-12.89-.15-.3-9.8,19.86-4.23-5.9.4-2.45,1.07-6.53.42-2.59-3.15-.52-1.55-.26-.84,5.1-.29,1.79-5.62-7.83-3.87,2.77,5.62,7.83-6.89-1.13-.77,4.69,11.58,1.9,2.39,3.33,1.81,2.53-21.76,3.16,15.86,15.46-6.87,2.21-2.21-1.14-5.89-3.02-2.34-1.2-1.45,2.84-.72,1.39,4.6,2.36,1.61.83-9.17,2.96,1.46,4.53,9.17-2.96-3.18,6.22,4.23,2.17,5.35-10.45,3.9-1.26,2.91-.94-3.71,21.67,19.65-10.33v7.23l-8.3,8.3,3.36,3.37,4.94-4.94v9.64h4.76v-9.64l1.28,1.28,3.65,3.65,1.11-1.11,2.26-2.26-1.86-1.86-4.68-4.68-1.76-1.76v-7.11l3.67,1.93,15.74,8.27-3.73-21.76,2.98.96,3.9,1.26,5.35,10.45,4.23-2.17-3.18-6.22,9.18,2.96,1.46-4.53ZM82.85,81.32l-4.25-2.23-.6-.32-1.74-.91-2.34,1.23-12.9,6.78,2.46-14.36.45-2.6-1.9-1.85-10.43-10.17,14.42-2.09,2.61-.38,1.17-2.37,6.45-13.07,1.57,3.19,4.88,9.88.74,1.49.43.88,2.61.38,14.42,2.09-10.43,10.17-1.89,1.85.45,2.6,2.46,14.36-8.65-4.55Z"/>
</svg>